<svg width="100" height="100" viewBox="0 0 34 34" fill="none" xmlns="http://www.w3.org/2000/svg">
<circle cx="17.1816" cy="16.8184" r="16.8184" fill="black"/>
<path d="M19.2759 10.8594C18.7954 11.4553 17.9921 11.8967 17.3538 11.8967C17.2749 11.8967 17.2032 11.882 17.1602 11.8747C17.153 11.8379 17.1315 11.7275 17.1315 11.6098C17.1315 10.8594 17.5044 10.109 17.9132 9.63819C18.4224 9.02022 19.2831 8.5641 20.0003 8.53467C20.0146 8.61559 20.0218 8.71859 20.0218 8.82158C20.0218 9.57198 19.7134 10.315 19.2759 10.8594ZM19.7779 12.0512C20.1796 12.0512 21.6355 12.0954 22.5894 13.5005C22.5033 13.5667 21.0617 14.4054 21.0617 16.2741C21.0617 18.4296 22.8978 19.2021 22.9551 19.2168C22.948 19.2683 22.6611 20.2615 21.9869 21.2841C21.3773 22.1742 20.739 23.0791 19.7779 23.0791C18.8097 23.0791 18.5587 22.4979 17.4542 22.4979C16.3641 22.4979 15.9768 23.0939 15.1018 23.0939C14.2125 23.0939 13.5957 22.2625 12.8928 21.2473C12.068 20.0481 11.4082 18.1868 11.4082 16.4212C11.4082 13.5962 13.2012 12.0954 14.9727 12.0954C15.9051 12.0954 16.6796 12.7207 17.2749 12.7207C17.8343 12.7207 18.7093 12.0512 19.7779 12.0512Z" fill="white"/>
</svg>
