<svg width="44" height="44" viewBox="0 0 44 44" fill="none" xmlns="http://www.w3.org/2000/svg">
<circle cx="22" cy="22" r="22" fill="white"/>
<g clip-path="url(#clip0_349_26)">
<path d="M31.1036 15.3661L31.4571 15.0125L31.1036 14.6589L29.3411 12.8964L28.9875 12.5429L28.6339 12.8964L22 19.5304L15.3661 12.8964L15.0125 12.5429L14.6589 12.8964L12.8964 14.6589L12.5429 15.0125L12.8964 15.3661L19.5304 22L12.8964 28.6339L12.5429 28.9875L12.8964 29.3411L14.6589 31.1036L15.0125 31.4571L15.3661 31.1036L22 24.4696L28.6339 31.1036L28.9875 31.4571L29.3411 31.1036L31.1036 29.3411L31.4571 28.9875L31.1036 28.6339L24.4696 22L31.1036 15.3661Z" fill="#4755EB" stroke="#4755EB"/>
</g>
<defs>
<clipPath id="clip0_349_26">
<rect width="30" height="30" fill="white" transform="translate(7 7)"/>
</clipPath>
</defs>
</svg>
