<svg width="12" height="20" viewBox="0 0 12 20" fill="none" xmlns="http://www.w3.org/2000/svg">
<path d="M6.92308 3.72093C7.93846 3.72093 8.76923 2.88372 8.76923 1.86047C8.76923 0.837209 7.93846 0 6.92308 0C5.90769 0 5.07692 0.837209 5.07692 1.86047C5.07692 2.88372 5.90769 3.72093 6.92308 3.72093ZM3.50769 6.88372L0.923077 20H2.86154L4.52308 12.5581L6.46154 14.4186V20H8.30769V13.0233L6.36923 11.1628L6.92308 8.37209C8.12308 9.76744 9.96923 10.6977 12 10.6977V8.83721C10.2462 8.83721 8.76923 7.90698 8.03077 6.60465L7.10769 5.11628C6.73846 4.55814 6.18462 4.18605 5.53846 4.18605C5.26154 4.18605 5.12109 4.18605 4.5 4.5L0 6.32558V10.6977H1.84615V7.53488L3.50769 6.88372Z" fill="#484848"/>
<path d="M6.9233 3.72093C7.9429 3.72093 8.76946 2.88797 8.76946 1.86047C8.76946 0.832959 7.9429 0 6.9233 0C5.9037 0 5.07715 0.832959 5.07715 1.86047C5.07715 2.88797 5.9037 3.72093 6.9233 3.72093Z" fill="#484848"/>
</svg>
