<svg width="74" height="76" viewBox="0 0 74 76" fill="none" xmlns="http://www.w3.org/2000/svg">
<path d="M23.2242 75.0001C16.1194 75.0001 10.3599 69.7448 10.3599 63.2621V29.7562C10.3599 23.2734 16.1194 18.0181 23.2243 18.0181H42.7122C57.2837 18.0181 64.0491 26.8828 64.0491 37.8836V55.1916C64.0491 66.1924 57.2837 75.0002 42.7122 75.0002L23.2242 75.0001ZM33.4715 58.1925H40.4189C41.9362 58.1925 43.1663 56.9635 43.1663 55.4474V37.7289C43.1663 36.2129 41.9362 34.9839 40.4189 34.9839H33.4715C31.9542 34.9839 30.7242 36.2129 30.7242 37.7289V55.4474C30.7242 56.9635 31.9542 58.1925 33.4715 58.1925Z" fill="url(#paint0_linear_269_19)" stroke="url(#paint1_linear_269_19)" stroke-width="0.5" stroke-miterlimit="10"/>
<path d="M36.9452 13.4316C40.3809 13.4316 43.1662 10.6487 43.1662 7.21582C43.1662 3.78292 40.3809 1 36.9452 1C33.5094 1 30.7241 3.78292 30.7241 7.21582C30.7241 10.6487 33.5094 13.4316 36.9452 13.4316Z" fill="url(#paint2_linear_269_19)" stroke="url(#paint3_linear_269_19)" stroke-width="0.5" stroke-miterlimit="10"/>
<defs>
<linearGradient id="paint0_linear_269_19" x1="-9.65122" y1="88.2916" x2="81.1039" y2="3.68093" gradientUnits="userSpaceOnUse">
<stop offset="0.004" stop-color="#1CB9FF"/>
<stop offset="0.099" stop-color="#239CFF"/>
<stop offset="0.27" stop-color="#2F6EFF"/>
<stop offset="0.356" stop-color="#345DFF"/>
<stop offset="0.998" stop-color="#4D31CB"/>
</linearGradient>
<linearGradient id="paint1_linear_269_19" x1="10.3229" y1="46.5091" x2="64.0861" y2="46.5091" gradientUnits="userSpaceOnUse">
<stop stop-color="#4F52DE"/>
<stop offset="1" stop-color="#559EFC"/>
</linearGradient>
<linearGradient id="paint2_linear_269_19" x1="26.3151" y1="18.5739" x2="54.0119" y2="-11.0691" gradientUnits="userSpaceOnUse">
<stop offset="0.004" stop-color="#1CB9FF"/>
<stop offset="0.012" stop-color="#1CB5FF"/>
<stop offset="0.115" stop-color="#268FFF"/>
<stop offset="0.21" stop-color="#2E73FF"/>
<stop offset="0.293" stop-color="#3262FF"/>
<stop offset="0.356" stop-color="#345DFF"/>
<stop offset="1" stop-color="#4D31CB"/>
</linearGradient>
<linearGradient id="paint3_linear_269_19" x1="30.6873" y1="7.21582" x2="43.2032" y2="7.21582" gradientUnits="userSpaceOnUse">
<stop stop-color="#4F52DE"/>
<stop offset="1" stop-color="#559EFC"/>
</linearGradient>
</defs>
</svg>
