<svg width="28" height="28" viewBox="0 0 28 28" fill="none" xmlns="http://www.w3.org/2000/svg">
<g clip-path="url(#clip0_281_6)">
<path d="M28 25.8125C28 27.0207 27.0207 28 25.8125 28H2.1875C0.979344 28 0 27.0207 0 25.8125V2.1875C0 0.979344 0.979344 0 2.1875 0H25.8125C27.0207 0 28 0.979344 28 2.1875V25.8125Z" fill="#FFE812"/>
<path d="M14 3.9375C7.71772 3.9375 2.625 7.95298 2.625 12.9063C2.625 16.1086 4.75409 18.9186 7.95681 20.5053C7.78258 21.1062 6.83714 24.371 6.79952 24.6275C6.79952 24.6275 6.77688 24.8203 6.90167 24.8938C7.02647 24.9673 7.17325 24.9102 7.17325 24.9102C7.53113 24.8602 11.3233 22.1965 11.9796 21.7339C12.6353 21.8268 13.3105 21.875 14 21.875C20.2823 21.875 25.375 17.8596 25.375 12.9063C25.375 7.95298 20.2823 3.9375 14 3.9375Z" fill="black"/>
<path d="M7.71094 16.0371C7.34902 16.0371 7.05469 15.756 7.05469 15.4104V11.5117H6.03072C5.67558 11.5117 5.38672 11.2234 5.38672 10.8691C5.38672 10.5149 5.67569 10.2266 6.03072 10.2266H9.39116C9.7463 10.2266 10.0352 10.5149 10.0352 10.8691C10.0352 11.2234 9.74619 11.5117 9.39116 11.5117H8.36719V15.4104C8.36719 15.756 8.07286 16.0371 7.71094 16.0371ZM13.4654 16.0286C13.1917 16.0286 12.9824 15.9175 12.9193 15.7387L12.5943 14.888L10.5932 14.8879L10.268 15.7392C10.2051 15.9176 9.99589 16.0286 9.72223 16.0286C9.57829 16.0287 9.436 15.9978 9.30508 15.938C9.12417 15.8546 8.95027 15.6251 9.14955 15.0061L10.7193 10.8744C10.8299 10.5602 11.1658 10.2364 11.5932 10.2267C12.0218 10.2363 12.3577 10.5602 12.4685 10.875L14.0376 15.0049C14.2373 15.6253 14.0634 15.8549 13.8825 15.9381C13.7516 15.9978 13.6093 16.0287 13.4654 16.0286ZM12.2492 13.7256L11.5938 11.8635L10.9383 13.7256H12.2492ZM15.0938 15.9414C14.7469 15.9414 14.4648 15.6715 14.4648 15.3398V10.8828C14.4648 10.5209 14.7654 10.2266 15.1348 10.2266C15.5041 10.2266 15.8047 10.5209 15.8047 10.8828V14.7383H17.1992C17.546 14.7383 17.8281 15.0082 17.8281 15.3398C17.8281 15.6715 17.546 15.9414 17.1992 15.9414H15.0938ZM18.7397 16.0286C18.3777 16.0286 18.0834 15.7342 18.0834 15.3723V10.8828C18.0834 10.5209 18.3777 10.2266 18.7397 10.2266C19.1016 10.2266 19.3959 10.5209 19.3959 10.8828V12.2933L21.2268 10.4624C21.321 10.3682 21.4504 10.3164 21.5908 10.3164C21.7547 10.3164 21.9192 10.387 22.0425 10.5102C22.1574 10.625 22.226 10.7728 22.2354 10.9262C22.2449 11.081 22.1934 11.2229 22.0906 11.3258L20.5951 12.821L22.2105 14.9611C22.2626 15.0297 22.3006 15.1081 22.3222 15.1915C22.3439 15.275 22.3487 15.3619 22.3365 15.4472C22.3248 15.5326 22.2962 15.6149 22.2525 15.6892C22.2088 15.7635 22.1508 15.8283 22.0818 15.88C21.9683 15.9663 21.8296 16.0128 21.6871 16.0125C21.5854 16.013 21.485 15.9896 21.394 15.9443C21.303 15.899 21.2238 15.833 21.1629 15.7516L19.6238 13.7125L19.3961 13.9402V15.372C19.3959 15.5461 19.3267 15.7129 19.2036 15.836C19.0806 15.9591 18.9137 16.0283 18.7397 16.0286Z" fill="#FFE812"/>
</g>
<defs>
<clipPath id="clip0_281_6">
<rect width="28" height="28" fill="white"/>
</clipPath>
</defs>
</svg>
