<svg width="20" height="20" viewBox="0 0 20 20" fill="none" xmlns="http://www.w3.org/2000/svg">
<path d="M17.733 5.49984H12.8997V2.59984C12.8997 1.5365 12.0297 0.666504 10.9663 0.666504H9.03301C7.96967 0.666504 7.09967 1.5365 7.09967 2.59984V5.49984H2.26634C1.20301 5.49984 0.333008 6.36984 0.333008 7.43317V18.0665C0.333008 19.1298 1.20301 19.9998 2.26634 19.9998H17.733C18.7963 19.9998 19.6663 19.1298 19.6663 18.0665V7.43317C19.6663 6.36984 18.7963 5.49984 17.733 5.49984ZM9.03301 2.59984H10.9663V7.43317H9.03301V2.59984ZM9.03301 14.1998H7.09967V16.1332H5.16634V14.1998H3.23301V12.2665H5.16634V10.3332H7.09967V12.2665H9.03301V14.1998ZM10.9663 12.7498V11.2998H16.7663V12.7498H10.9663ZM10.9663 15.6498V14.1998H14.833V15.6498H10.9663Z" fill="#484848"/>
</svg>
